<svg xmlns="http://www.w3.org/2000/svg" viewBox="0 0 64 64" role="img" aria-labelledby="title">
  <title id="title">Branch Checks</title>
  <defs>
    <filter id="softShadow" x="-20%" y="-20%" width="140%" height="140%">
      <feDropShadow dx="0" dy="2" stdDeviation="2" flood-opacity=".18"/>
    </filter>
    
  </defs>
  <rect width="64" height="64" rx="14" fill="#365314"/>
  
  <path d="M16 45c15-3 23-13 32-27" fill="none" stroke="#a16207" stroke-width="6" stroke-linecap="round"/>
  <path d="M31 33c-1-8 3-12 10-13 0 8-4 12-10 13z" fill="#84cc16"/>
  <path d="M22 40c-2-6 1-9 6-11 1 6-1 10-6 11z" fill="#bef264"/>
  <circle cx="19" cy="20" r="8" fill="#f7fee7" filter="url(#softShadow)"/>
  <path d="M15 20l3 3 6-7" fill="none" stroke="#4d7c0f" stroke-width="3.2" stroke-linecap="round" stroke-linejoin="round"/>
  <circle cx="45" cy="43" r="8" fill="#f7fee7" filter="url(#softShadow)"/>
  <path d="M41 43l3 3 6-7" fill="none" stroke="#4d7c0f" stroke-width="3.2" stroke-linecap="round" stroke-linejoin="round"/>

</svg>
